<?xml version="1.0" standalone="no"?><!DOCTYPE svg PUBLIC "-//W3C//DTD SVG 1.1//EN" "http://www.w3.org/Graphics/SVG/1.1/DTD/svg11.dtd"><svg t="1677858359033" class="icon" viewBox="0 0 1024 1024" version="1.1" xmlns="http://www.w3.org/2000/svg" p-id="1186" xmlns:xlink="http://www.w3.org/1999/xlink" width="200" height="200"><path d="M424.1635552 21.504c121.40088853-22.69866667 250.76622187 2.8444448 355.1004448 68.66488853 84.65066667 53.13422187 152.91733333 132.20977813 192.45511147 224.08533334 50.28977813 115.08622187 54.32888853 249.45777813 11.7191104 367.55911146-35.95377813 101.20533333-106.15466667 189.61066667-195.92533334 248.32-82.60266667 54.61333333-181.93066667 83.51288853-280.91733333 81.6924448-107.52-0.62577813-214.18666667-38.00177813-299.06488853-103.76533333-90.73777813-69.632-156.21688853-171.2355552-181.58933334-282.79466667-25.20177813-107.008-13.0275552-221.9804448 33.10933334-321.64977813C125.32622187 157.63911147 266.06933333 48.58311147 424.1635552 21.504m-183.63733333 338.48888853c-70.144 47.21777813-99.328 144.6115552-66.73066667 222.60622294 21.44711147 54.84088853 70.4284448 97.84888853 127.60177813 112.01422186 65.64977813 15.81511147 137.32977813-2.048 189.6675552-44.3164448 75.71911147-59.6195552 117.5324448-148.59377813 168.39111147-228.01066666 23.66577813 43.2924448 48.69688853 85.90222187 72.30577813 129.25155626-24.91733333-17.408-48.9244448-35.95377813-73.38666666-53.87377813-18.7164448 12.97066667-38.22933333 24.8035552-55.97866667 39.1964448 69.46133333 51.9395552 139.60533333 102.96888853 209.1235552 154.8515552 14.1084448 12.17422187 39.936 10.92266667 49.4364448-6.4284448 6.25777813-11.60533333 5.57511147-26.624-1.42222293-37.77422187-57.51466667-101.94488853-114.63111147-204.11733333-171.91822187-306.23288853-9.78488853-19.7404448-40.78933333-21.61777813-52.62222187-2.95822293-40.50488853 62.6915552-73.9555552 129.87733333-118.0444448 190.2364448-28.78577813 39.02577813-63.2604448 77.0275552-109.39733333 95.11822186-38.51377813 14.79111147-84.48 15.81511147-120.94577813-5.23377706-37.6604448-20.992-63.14666667-62.976-62.00888854-106.32533334 0.11377813-42.89422187 25.8844448-83.91111147 63.488-103.936 36.97777813-20.48 82.432-18.432 121.40088854-5.00622293 42.09777813 14.5635552 74.35377813 46.592 109.1128896 73.04533333 18.37511147-12.85688853 38.22933333-24.00711147 55.2391104-38.45688853-26.56711147-23.89333333-55.69422187-45.73866667-84.53688854-67.12888853-71.168-50.57422187-175.16088853-63.14666667-248.77511146-10.63822294z" fill="#17B257" p-id="1187"></path><path d="M240.52622187 359.99288853c73.61422187-52.5084448 177.60711147-39.936 248.77511146 10.63822294 28.84266667 21.39022187 57.96977813 43.2355552 84.53688854 67.12888853-17.00977813 14.44977813-36.864 25.6-55.2391104 38.45688853-34.75911147-26.45333333-67.01511147-58.48177813-109.1128896-73.04533333-38.96888853-13.42577813-84.42311147-15.47377813-121.40088854 5.00622293-37.6035552 20.02488853-63.37422187 61.04177813-63.488 103.936-1.13777813 43.34933333 24.3484448 85.33333333 62.00888854 106.32533334 36.46577813 21.04888853 82.432 20.02488853 120.94577813 5.23377706 46.13688853-18.09066667 80.6115552-56.0924448 109.39733333-95.11822186 44.08888853-60.35911147 77.5395552-127.54488853 118.0444448-190.2364448 11.83288853-18.6595552 42.83733333-16.78222187 52.62222187 2.95822293 57.28711147 102.1155552 114.4035552 204.288 171.91822187 306.23288853 6.99733333 11.15022187 7.68 26.16888853 1.42222293 37.77422187-9.5004448 17.35111147-35.328 18.60266667-49.4364448 6.4284448-69.51822187-51.88266667-139.66222187-102.912-209.1235552-154.8515552 17.74933333-14.39288853 37.26222187-26.22577813 55.97866667-39.1964448 24.46222187 17.92 48.46933333 36.46577813 73.38666666 53.87377813-23.60888853-43.34933333-48.64-85.95911147-72.30577813-129.25155626-50.85866667 79.41688853-92.672 168.39111147-168.39111147 228.01066666-52.33777813 42.2684448-124.01777813 60.1315552-189.6675552 44.3164448-57.17333333-14.16533333-106.15466667-57.17333333-127.60177813-112.01422186-32.59733333-77.99466667-3.41333333-175.3884448 66.73066667-222.60622294z" fill="#FFFFFF" p-id="1188"></path></svg>