<svg t="1740899901942" class="icon" viewBox="0 0 1024 1024" version="1.1" xmlns="http://www.w3.org/2000/svg" p-id="7759" width="200" height="200"><path d="M0 512C0 794.78784 229.21216 1024 512 1024S1024 794.78784 1024 512 794.78784 0 512 0 0 229.21216 0 512z" fill="#5865F2" p-id="7760"></path><path d="M512 300.35968c-114.36032 0-194.56 49.07008-194.56 49.07008 43.95008-39.23968 120.75008-61.8496 120.75008-61.8496l-7.24992-7.24992c-72.0896 1.26976-137.37984 51.2-137.37984 51.2-73.40032 153.1904-68.68992 285.45024-68.68992 285.45024 59.71968 77.2096 148.48 71.68 148.48 71.68l30.3104-38.42048c-53.37088-11.50976-87.08096-58.90048-87.08096-58.90048s80.19968 54.64064 195.42016 54.64064c115.22048 0 195.3792-54.64064 195.3792-54.64064s-33.66912 47.39072-86.99904 58.90048l30.3104 38.42048s88.71936 5.5296 148.43904-71.68c0 0 4.7104-132.3008-68.68992-285.4912 0 0-65.24928-49.88928-137.37984-51.2l-7.24992 7.29088s76.8 22.60992 120.75008 61.8496c0 0-80.19968-49.07008-194.56-49.07008m-88.30976 161.71008c27.72992 0 50.33984 24.33024 49.93024 54.19008 0 29.45024-22.20032 54.19008-49.9712 54.19008-27.27936 0-49.47968-24.73984-49.47968-54.19008 0-29.85984 21.79072-54.19008 49.52064-54.19008m177.93024 0c27.72992 0 49.88928 24.33024 49.88928 54.19008 0 29.45024-22.15936 54.19008-49.93024 54.19008-27.27936 0-49.47968-24.73984-49.47968-54.19008 0-29.85984 21.74976-54.19008 49.52064-54.19008z" fill="#FFFFFF" p-id="7761"></path></svg>