<?xml version="1.0" standalone="no"?>
<!DOCTYPE svg PUBLIC "-//W3C//DTD SVG 1.1//EN" "http://www.w3.org/Graphics/SVG/1.1/DTD/svg11.dtd"><svg class="icon"
    width="200px" height="200.00px" viewBox="0 0 1024 1024" version="1.1" xmlns="http://www.w3.org/2000/svg">
    <path
        d="M511.922276 511.609221m-511.609221 0a511.609221 511.609221 0 1 0 1023.218442 0 511.609221 511.609221 0 1 0-1023.218442 0Z"
        fill="#3A5A98" />
    <path
        d="M873.837341 150.598776c199.795873 199.795873 199.804509 523.742792-0.008636 723.553779-199.804509 199.795873-523.757905 199.795873-723.553778 0L873.837341 150.598776z"
        fill="#345387" />
    <path
        d="M1020.219594 569.232889L650.137037 199.141697l-192.146542 192.146542 11.44701 11.44701-109.398609 109.389973 89.5423 89.542301-11.777336 11.770859 96.941188 96.941188-111.758394 111.758395 190.918072 190.918072c215.291005-43.568588 381.473432-222.312068 406.314868-443.823148z"
        fill="#2E4D72" />
    <path
        d="M422.47713 321.554749v85.800756h-62.859239v104.923006h62.859239v311.763691h129.125378V512.278511h86.649243s8.117834-50.319776 12.045052-105.318102h-98.202043v-71.745677c0-10.71295 14.072352-25.132901 27.991414-25.132901h70.355282V200.853783h-95.656584c-135.505218-0.006477-132.307742 105.013683-132.307742 120.700966z"
        fill="#FFFFFF" />
</svg>