<svg t="1647440852571" class="icon" viewBox="0 0 1024 1024" version="1.1" xmlns="http://www.w3.org/2000/svg" p-id="7012"
    width="200" height="200">
    <path
        d="M512 985.6c261.5552 0 473.6-212.0448 473.6-473.6S773.5552 38.4 512 38.4 38.4 250.4448 38.4 512 250.4448 985.6 512 985.6z m0 38.4C229.2224 1024 0 794.7776 0 512S229.2224 0 512 0s512 229.2224 512 512-229.2224 512-512 512z"
        fill="#D2D8E0" p-id="7013"></path>
    <path
        d="M657.5872 581.12h-141.0048v-105.7792h248.064l-0.128 2.2272c2.304 15.4368 3.4816 31.2576 3.4816 47.36 0 148.48-82.5344 268.8-256 268.8-143.2832 0-256-120.32-256-268.8 0-148.4544 109.6704-264.2688 256-268.8 73.8816-2.2784 135.3728 24.8064 179.5584 69.7856L616.2688 404.48c-25.2672-27.008-60.416-42.9312-104.2688-42.9312-69.7856 0-150.2208 71.4752-150.2208 163.3792S438.0928 687.872 512 687.872c81.9968 0 130.9696-42.5216 145.5872-106.752z"
        fill="#34A853" p-id="7014"></path>
    <path
        d="M371.0464 471.68l-88.0128-68.1728c41.2416-85.9392 126.0288-144.2048 228.9664-147.3792 73.8816-2.2784 135.3728 24.8064 179.5584 69.7856L616.2688 404.48c-25.2672-27.008-60.416-42.9312-104.2688-42.9312-55.552 0-117.8624 45.312-140.9536 110.1312z"
        fill="#EA4335" p-id="7015"></path>
    <path
        d="M691.456 729.2416l-83.9936-68.7104c25.7792-18.7392 42.5472-46.1568 50.1248-79.4112h-141.0048v-105.7792h248.064l-0.128 2.2272c2.304 15.4368 3.4816 31.2576 3.4816 47.36 0 81.7664-25.0368 155.008-76.544 204.3136z"
        fill="#4285F4" p-id="7016"></path>
    <path
        d="M369.9968 576.256l-86.7328 70.2464A280.9856 280.9856 0 0 1 256 524.928c0-45.5168 10.3168-87.9616 28.8256-125.056l87.0912 69.4016a158.464 158.464 0 0 0-10.1376 55.6544c0 18.048 2.9184 35.2768 8.192 51.3024z"
        fill="#FBBC03" p-id="7017"></path>
</svg>