<svg t="1647440202843" class="icon" viewBox="0 0 1024 1024" version="1.1" xmlns="http://www.w3.org/2000/svg" p-id="1151" width="200" height="200"><path d="M512 512m-480 0a480 480 0 1 0 960 0 480 480 0 1 0-960 0Z" fill="#E6686A" p-id="1152"></path><path d="M275.264 488.32h59.52v311.264h-59.52V488.32z m33.536-94.528c14.944 27.648 24.64 55.328 29.088 82.976h64.832c-8.96-35.36-20.128-63.04-33.536-82.976H308.8zM436.8 314.528h71.584V275.328h-129.696c1.504-3.104 3.744-8.448 6.72-16.16 1.472-6.112 2.976-10.72 4.48-13.824H322.752c-10.432 41.504-34.24 72.288-71.52 92.224v39.2c49.152-12.288 84.192-33.024 105.056-62.24h22.4c7.424 19.968 11.904 39.2 13.408 57.632h62.592a292.992 292.992 0 0 0-17.92-57.632z m-29.056 124.512h269.472v253.664c1.504 23.04-8.928 33.792-31.296 32.256H608.96v46.112h53.664c52.16 1.536 77.504-22.304 76-71.488V392.96h-330.88v46.112z" fill="#FFFFFF" p-id="1153"></path><path d="M617.92 480.544h-219.136v232.896h152.064c47.68 1.536 70.08-21.536 67.072-69.152v-163.744z m-158.72 41.504h98.336v53.024H459.2v-53.024z m69.28 149.888h-69.312v-57.664h98.368v27.68c1.504 21.536-8.192 31.52-29.056 29.984zM620.16 273.024a18.24 18.24 0 0 1 2.24-6.944l6.72-20.736h-67.072c-10.464 43.04-33.536 75.328-69.344 96.832v36.896c46.208-12.32 81.28-33.792 105.088-64.576h31.328c7.456 20 11.904 39.232 13.44 57.664h60.32c-1.472-15.36-7.456-34.56-17.92-57.664h78.304V273.024H620.16z" fill="#FFFFFF" p-id="1154"></path></svg>