<?xml version="1.0" encoding="UTF-8"?>
<!DOCTYPE svg PUBLIC "-//W3C//DTD SVG 1.1//EN" "http://www.w3.org/Graphics/SVG/1.1/DTD/svg11.dtd">
<svg xmlns="http://www.w3.org/2000/svg" version="1.1" width="240px" height="240px" style="shape-rendering:geometricPrecision; text-rendering:geometricPrecision; image-rendering:optimizeQuality; fill-rule:evenodd; clip-rule:evenodd" xmlns:xlink="http://www.w3.org/1999/xlink">
<g><path style="opacity:1" fill="none" d="M -0.5,-0.5 C 34.5,-0.5 69.5,-0.5 104.5,-0.5C 46.5,11.5 11.5,46.5 -0.5,104.5C -0.5,69.5 -0.5,34.5 -0.5,-0.5 Z"/></g>
<g><path style="opacity:1" fill="none" d="M 132.5,-0.5 C 167.833,-0.5 203.167,-0.5 238.5,-0.5C 238.5,33.1667 238.5,66.8333 238.5,100.5C 225.295,43.6287 189.962,9.96206 132.5,-0.5 Z"/></g>
<!-- <g><path style="opacity:1" fill="#eeeeee" d="M 104.5,-0.5 C 113.833,-0.5 123.167,-0.5 132.5,-0.5C 189.962,9.96206 225.295,43.6287 238.5,100.5C 238.5,113.167 238.5,125.833 238.5,138.5C 225.293,195.373 189.96,229.04 132.5,239.5C 123.167,239.5 113.833,239.5 104.5,239.5C 45.5933,227.26 10.5933,191.594 -0.5,132.5C -0.5,123.167 -0.5,113.833 -0.5,104.5C 11.5,46.5 46.5,11.5 104.5,-0.5 Z"/></g> -->
<circle cx="120" cy="120" r="120" fill="#f0f0f0"/>
<g><path style="opacity:1" fill="#1d1d1f" d="M 107.5,6.5 C 158.147,4.47809 195.813,25.3114 220.5,69C 153.167,69.6667 85.8333,69.6667 18.5,69C 38.0847,33.8693 67.7514,13.0359 107.5,6.5 Z"/></g>
<g><path style="opacity:1" fill="none" d="M -0.5,132.5 C 10.5933,191.594 45.5933,227.26 104.5,239.5C 69.5,239.5 34.5,239.5 -0.5,239.5C -0.5,203.833 -0.5,168.167 -0.5,132.5 Z"/></g>
<g><path style="opacity:1" fill="none" d="M 238.5,138.5 C 238.5,172.167 238.5,205.833 238.5,239.5C 203.167,239.5 167.833,239.5 132.5,239.5C 189.96,229.04 225.293,195.373 238.5,138.5 Z"/></g>
<g><path style="opacity:1" fill="#feb007" d="M 18.5,170.5 C 85.6654,169.335 152.999,169.168 220.5,170C 193.953,216.275 153.953,236.608 100.5,231C 63.8257,223.194 36.4924,203.027 18.5,170.5 Z"/></g>
</svg>
