<svg t="1648954907756" class="icon" viewBox="0 0 1024 1024" version="1.1" xmlns="http://www.w3.org/2000/svg" p-id="939"
    width="200" height="200">
    <circle fill="#fff" cx="512" cy="512" r="510" />
    <path
        d="M512 2.27555555C230.74133333 2.27555555 2.27555555 230.74133333 2.27555555 512s228.46577778 509.72444445 509.72444445 509.72444445 509.72444445-228.46577778 509.72444445-509.72444445S793.25866667 2.27555555 512 2.27555555z m254.86222222 744.56177778c0 16.384-12.74311111 29.12711111-28.21688889 29.12711112-268.51555555 0-486.05866667-223.00444445-486.05866666-498.80177778 0-16.384 12.74311111-29.12711111 28.21688888-29.12711112h100.12444445c15.47377778 0 28.21688889 12.74311111 28.21688889 29.12711112 0 36.40888889 5.46133333 71.90755555 16.384 105.58577778 2.73066667 10.01244445 0.91022222 21.84533333-7.28177778 30.03733333l-62.80533333 64.62577777c40.96 82.83022222 107.40622222 151.09688889 188.416 192.96711112l62.80533333-64.62577778c7.28177778-8.192 19.11466667-10.92266667 29.12711111-7.28177778 31.85777778 10.92266667 66.44622222 16.384 101.94488889 16.384 15.47377778 0 28.21688889 13.65333333 28.21688889 29.12711111v102.85511111z"
        fill="#25dd46" p-id="940"></path>
</svg>