<svg t="1740899747204" class="icon" viewBox="0 0 1024 1024" version="1.1" xmlns="http://www.w3.org/2000/svg" p-id="1322" width="200" height="200"><path d="M544 512m-432 0a432 432 0 1 0 864 0 432 432 0 1 0-864 0Z" fill="#FFFFFF" p-id="1323"></path><path d="M512 1024C230.4 1024 0 793.6 0 512S230.4 0 512 0s512 230.4 512 512-230.4 512-512 512z m342.4-524.8c0-19.2-6.4-38.4-22.4-54.4-12.8-16-35.2-22.4-54.4-22.4-22.4 0-38.4 6.4-54.4 22.4-54.4-38.4-121.6-57.6-198.4-60.8l38.4-179.2 128 28.8c0 16 6.4 28.8 16 38.4 9.6 9.6 25.6 16 38.4 16 16 0 28.8-6.4 41.6-16s16-25.6 16-41.6-6.4-28.8-16-41.6c-9.6-9.6-25.6-16-41.6-16-22.4 0-38.4 9.6-51.2 32l-140.8-32c-6.4-3.2-12.8 0-16 9.6L499.2 384c-76.8 3.2-140.8 22.4-195.2 60.8-16-16-32-22.4-54.4-22.4-19.2 0-38.4 6.4-54.4 22.4-16 16-22.4 32-22.4 54.4 0 16 3.2 28.8 12.8 41.6 6.4 12.8 19.2 22.4 32 28.8-3.2 12.8-3.2 22.4-3.2 35.2 0 60.8 28.8 112 89.6 153.6 60.8 41.6 131.2 64 214.4 64 83.2 0 156.8-22.4 214.4-64 60.8-41.6 89.6-92.8 89.6-153.6 0-12.8 0-25.6-3.2-35.2 12.8-6.4 22.4-16 32-28.8-3.2-12.8 3.2-28.8 3.2-41.6z m-217.6 188.8c6.4 6.4 6.4 12.8 0 19.2-25.6 25.6-67.2 38.4-124.8 38.4-57.6 0-99.2-12.8-124.8-38.4-6.4-6.4-6.4-12.8 0-19.2 3.2-3.2 6.4-3.2 9.6-3.2 3.2 0 6.4 0 9.6 3.2 19.2 19.2 57.6 32 105.6 32 51.2 0 86.4-9.6 105.6-32 3.2-3.2 6.4-3.2 9.6-3.2 6.4 0 9.6 3.2 9.6 3.2z m-192-112c0 16-6.4 28.8-16 38.4-9.6 9.6-25.6 16-38.4 16-16 0-28.8-6.4-41.6-16-9.6-9.6-16-25.6-16-38.4 0-16 6.4-28.8 16-41.6 9.6-9.6 25.6-16 41.6-16s28.8 6.4 38.4 16c9.6 9.6 16 25.6 16 41.6z m249.6 0c0 16-6.4 28.8-16 38.4-9.6 9.6-25.6 16-41.6 16s-28.8-6.4-38.4-16c-9.6-9.6-16-25.6-16-38.4 0-16 6.4-28.8 16-41.6s25.6-16 38.4-16c16 0 28.8 6.4 41.6 16 9.6 9.6 16 22.4 16 41.6z" fill="#FF4500" p-id="1324"></path></svg>