<svg t="1740900235491" class="icon" viewBox="0 0 1024 1024" version="1.1" xmlns="http://www.w3.org/2000/svg" p-id="19612" width="200" height="200"><path d="M1023.921283 512.00032a501.105906 501.105906 0 0 1-68.734067 257.016771 509.425672 509.425672 0 0 1-186.234762 186.234763A500.849914 500.849914 0 0 1 511.935682 1023.98592a500.849914 500.849914 0 0 1-256.952773-68.734066 509.425672 509.425672 0 0 1-186.29876-186.234763A500.913912 500.913912 0 0 1 0.01408 512.00032c0-92.861388 22.847357-178.554978 68.734067-257.016771a509.425672 509.425672 0 0 1 186.234762-186.298761A500.849914 500.849914 0 0 1 511.99968 0.01472a500.465924 500.465924 0 0 1 257.016772 68.734066 509.425672 509.425672 0 0 1 186.234762 186.234763A500.913912 500.913912 0 0 1 1023.985281 512.00032h-0.063998z" fill="#FFFC00" p-id="19613"></path><path d="M518.527497 178.825691c-90.877444 0-154.235662 38.014931-189.114681 113.660803-7.039802 14.527591-10.879694 36.350978-11.775669 65.726151l-0.127997 16.063548 2.943918 67.774094-2.559928 0.127997a46.718686 46.718686 0 0 1-13.247628-2.559928l-5.759838-1.983944a68.60607 68.60607 0 0 0-22.335372-5.503846 51.006565 51.006565 0 0 0-29.247177 9.151743 31.103125 31.103125 0 0 0-14.527591 26.623251c0 11.455678 5.311851 21.183404 15.61556 28.79919 7.039802 5.247852 14.463593 9.279739 22.591365 12.159658l8.319766 2.559928c9.919721 2.559928 18.879469 6.143827 27.071239 10.751698 6.847807 3.839892 9.727726 7.679784 9.727726 11.775669l-0.639982 3.519901-2.111941 6.527816-1.535956 4.287879c-27.39123 59.070339-69.758038 94.845332-127.356418 107.260984-12.671644 2.943917-19.647447 11.519676-19.647448 24.319316l0.383989 4.863863c3.839892 20.799415 32.063098 35.007015 83.837642 44.670744l10.431707 1.791949-0.447987 0.191995c-0.511986 0.639982-0.511986 2.175939-0.255993 4.287879l1.40796 7.999775c1.919946 10.239712 4.863863 17.983494 8.959748 23.167349 4.60787 5.887834 11.711671 8.767753 20.671419 8.767753 4.351878 0 10.239712-0.575984 17.919496-1.727951l8.191769-1.279964c8.319766-1.663953 16.767528-2.623926 25.215291-2.943918 14.59159 0 28.607195 3.135912 41.98282 9.343738 9.471734 4.415876 18.559478 9.59973 27.263233 15.423566l7.359793 5.439847c10.239712 8.19177 23.551338 15.679559 39.80688 22.527366 16.639532 7.039802 34.49503 10.559703 53.566494 10.559703 19.90344 0 38.334922-3.455903 55.166448-10.495705 12.351653-5.119856 22.975354-10.687699 31.679109-16.639532l8.19177-5.951832c9.087744-7.423791 20.479424-14.335597 34.303035-20.863413a97.917246 97.917246 0 0 1 41.982819-9.343738l4.863863 0.191995 12.607646 1.279964 7.80778 1.087969c11.583674 1.79195 20.479424 2.751923 26.68725 2.751923 9.087744 0 16.191545-3.19991 20.543422-9.407735a50.302585 50.302585 0 0 0 6.847807-15.615561l4.159883-18.623476 1.08797-3.711896c58.878344-6.335822 91.645422-22.591365 91.901415-47.550663 0-12.79964-6.975804-21.503395-19.647448-24.383314a171.707171 171.707171 0 0 1-75.837867-37.886934 199.674384 199.674384 0 0 1-51.710545-69.758038l-3.071914-9.151743a22.719361 22.719361 0 0 1-1.023971-4.863863c0-4.095885 2.879919-7.935777 9.663728-11.775669 5.503845-3.071914 11.327681-5.631842 17.535507-7.80778l9.59973-2.943918c11.263683-2.879919 21.631392-7.80778 30.847132-14.719586a35.582999 35.582999 0 0 0 15.679559-29.439172c0-10.687699-5.247852-19.647447-15.167573-26.367258a51.19856 51.19856 0 0 0-29.311176-9.471734 54.846457 54.846457 0 0 0-16.831526 3.327907l-12.607646 4.671868a42.238812 42.238812 0 0 1-12.479649 2.751923l-1.343962-0.191995 2.751923-58.430356 0.319991-12.351653c0-35.966988-3.839892-62.20625-12.031662-78.717786a194.170539 194.170539 0 0 0-70.782009-83.645647 188.218706 188.218706 0 0 0-104.89305-30.079154z" fill="#FFFFFF" p-id="19614"></path><path d="M518.527497 178.825691c-90.877444 0-154.235662 38.014931-189.114681 113.660803-7.039802 14.527591-10.879694 36.350978-11.775669 65.726151l-0.127997 16.063548 2.943918 67.774094-2.559928 0.127997a46.718686 46.718686 0 0 1-13.247628-2.559928l-5.759838-1.983944a68.60607 68.60607 0 0 0-22.335372-5.503846 51.006565 51.006565 0 0 0-29.247177 9.151743 31.103125 31.103125 0 0 0-14.527591 26.623251c0 11.455678 5.311851 21.183404 15.61556 28.79919 7.039802 5.247852 14.463593 9.279739 22.591365 12.159658l8.319766 2.559928c9.919721 2.559928 18.879469 6.143827 27.071239 10.751698 6.847807 3.839892 9.727726 7.679784 9.727726 11.775669l-0.639982 3.519901-2.111941 6.527816-1.535956 4.287879c-27.39123 59.070339-69.758038 94.845332-127.356418 107.260984-12.671644 2.943917-19.647447 11.519676-19.647448 24.319316l0.383989 4.863863c3.839892 20.799415 32.063098 35.007015 83.837642 44.670744l10.431707 1.791949-0.447987 0.191995c-0.511986 0.639982-0.511986 2.175939-0.255993 4.287879l1.40796 7.999775c1.919946 10.239712 4.863863 17.983494 8.959748 23.167349 4.60787 5.887834 11.711671 8.767753 20.671419 8.767753 4.351878 0 10.239712-0.575984 17.919496-1.727951l8.191769-1.279964c8.319766-1.663953 16.767528-2.623926 25.215291-2.943918 14.59159 0 28.607195 3.135912 41.98282 9.343738 9.471734 4.415876 18.559478 9.59973 27.263233 15.423566l7.359793 5.439847c10.239712 8.19177 23.551338 15.679559 39.80688 22.527366 16.639532 7.039802 34.49503 10.559703 53.566494 10.559703 19.90344 0 38.334922-3.455903 55.166448-10.495705 12.351653-5.119856 22.975354-10.687699 31.679109-16.639532l8.19177-5.951832c9.087744-7.423791 20.479424-14.335597 34.303035-20.863413a97.917246 97.917246 0 0 1 41.982819-9.343738l4.863863 0.191995 12.607646 1.279964 7.80778 1.087969c11.583674 1.79195 20.479424 2.751923 26.68725 2.751923 9.087744 0 16.191545-3.19991 20.543422-9.407735a50.302585 50.302585 0 0 0 6.847807-15.615561l4.159883-18.623476 1.08797-3.711896c58.878344-6.335822 91.645422-22.591365 91.901415-47.550663 0-12.79964-6.975804-21.503395-19.647448-24.383314a171.707171 171.707171 0 0 1-75.837867-37.886934 199.674384 199.674384 0 0 1-51.710545-69.758038l-3.071914-9.151743a22.719361 22.719361 0 0 1-1.023971-4.863863c0-4.095885 2.879919-7.935777 9.663728-11.775669 5.503845-3.071914 11.327681-5.631842 17.535507-7.80778l9.59973-2.943918c11.263683-2.879919 21.631392-7.80778 30.847132-14.719586a35.582999 35.582999 0 0 0 15.679559-29.439172c0-10.687699-5.247852-19.647447-15.167573-26.367258a51.19856 51.19856 0 0 0-29.311176-9.471734 54.846457 54.846457 0 0 0-16.831526 3.327907l-12.607646 4.671868a42.238812 42.238812 0 0 1-12.479649 2.751923l-1.343962-0.191995 2.751923-58.430356 0.319991-12.351653c0-35.966988-3.839892-62.20625-12.031662-78.717786a194.170539 194.170539 0 0 0-70.782009-83.645647 188.218706 188.218706 0 0 0-104.89305-30.079154z m0 12.863638c36.60697 0 69.118056 9.343737 97.917246 27.967213 28.671194 18.623476 50.750573 44.734742 66.238137 78.333797 6.207825 12.79964 9.791725 33.087069 10.559703 60.990285l0.127996 15.359568-2.559928 60.542297-0.639982 12.031662 4.799865 6.655812a41.278839 41.278839 0 0 0 9.59973 1.535957 52.798515 52.798515 0 0 0 16.255543-3.327906l6.783809-2.559928a56.062423 56.062423 0 0 1 18.943468-4.863863c7.935777 0.063998 15.615561 2.623926 22.079379 7.231796 6.463818 4.479874 9.471734 9.535732 9.471733 15.679559 0 7.679784-3.327906 13.951608-10.367708 19.263458a75.517876 75.517876 0 0 1-26.431257 12.543648 124.412501 124.412501 0 0 0-30.20715 11.967663c-10.559703 5.951833-16.319541 13.631617-16.319541 22.975354 0 3.647897 1.663953 9.59973 5.119856 18.879469 13.439622 29.631167 31.743107 54.39847 55.166448 74.557903 23.423341 20.287429 50.558578 33.919046 81.405711 40.830852 6.847807 1.535957 9.59973 4.927861 9.59973 11.71167-0.063998 15.615561-28.351203 29.567168-86.077579 38.846908a33.151068 33.151068 0 0 0-8.127772 16.511535l-1.087969 5.183854a48.382639 48.382639 0 0 1-6.271824 17.599505c-1.79195 2.559928-4.99186 3.967888-10.111715 3.967889l-4.607871-0.191995-12.351652-1.279964-7.679784-1.087969a188.474699 188.474699 0 0 0-27.327232-2.751923c-16.511536 0-32.319091 3.519901-47.358668 10.623701a195.834492 195.834492 0 0 0-29.055183 16.447538l-7.999775 6.015831a150.267774 150.267774 0 0 1-36.734967 20.735416 129.148368 129.148368 0 0 1-50.174588 9.471734c-17.279514 0-33.535057-3.19991-48.446638-9.471734a180.090935 180.090935 0 0 1-29.375174-15.295569l-7.487789-5.439847a188.79469 188.79469 0 0 0-37.246952-22.463369 110.268899 110.268899 0 0 0-66.558129-8.895749l-15.99955 2.559928-11.967663 1.471958a57.790375 57.790375 0 0 1-4.223881 0.191995c-5.247852 0-8.639757-1.279964-10.623701-3.839892a33.087069 33.087069 0 0 1-5.119856-11.711671l-4.095885-19.519451-1.535957-4.927861-23.231347-5.311851c-46.462693-11.647672-67.582099-23.935327-67.582099-37.566943 0-6.719811 2.751923-10.239712 9.59973-11.711671 61.566268-13.311626 107.196985-51.838542 136.508161-114.940767l3.391904-9.919721a35.071014 35.071014 0 0 0 1.855948-9.343737c0-9.343737-5.759838-17.023521-16.255543-22.975354a123.38853 123.38853 0 0 0-30.271148-11.967664A74.685899 74.685899 0 0 1 256.00688 486.40104c-7.039802-5.247852-10.367708-11.263683-10.367708-18.49548 0-6.719811 2.815921-11.839667 8.831751-15.99955a38.142927 38.142927 0 0 1 22.079379-6.911805c2.559928 0 6.655813 0.831977 12.031662 2.559928l5.759838 2.047942c9.535732 3.583899 17.279514 5.439847 23.551338 5.439847a27.519226 27.519226 0 0 0 12.159658-2.111941l3.583899-6.01583-3.007916-63.614211L330.244792 371.20428c0-34.175039 3.647897-58.686349 10.6877-73.149943 32.767078-71.102 91.581424-106.365008 177.531007-106.365008z" fill="#030303" p-id="19615"></path></svg>