<?xml version="1.0" standalone="no"?><!DOCTYPE svg PUBLIC "-//W3C//DTD SVG 1.1//EN" "http://www.w3.org/Graphics/SVG/1.1/DTD/svg11.dtd"><svg t="1677852946238" class="icon" viewBox="0 0 1024 1024" version="1.1" xmlns="http://www.w3.org/2000/svg" p-id="10303" xmlns:xlink="http://www.w3.org/1999/xlink" width="200" height="200"><path d="M32 511.776c0 264.96 214.784 479.744 479.776 479.744 264.96 0 479.744-214.784 479.744-479.744C991.52 246.816 776.736 32 511.776 32 246.816 32 32 246.784 32 511.776z" fill="#170B1A" p-id="10304"></path><path d="M512.256 347.2c0.448-50.368 0-101.216 0.448-151.616h103.168c-0.48 9.12 0.96 17.76 2.4 26.4l-70.528 5.76 5.76 403.968c0.48 17.28-12 56.128-20.64 71.008-13.44 23.04-54.208 44.128-81.088 46.528-16.768 1.44-29.248-2.88-44.608-11.04-11.52-6.24-17.76-40.768-21.12-49.92 26.4 14.912 60.96 13.44 86.4-3.328a88.128 88.128 0 0 0 40.736-73.408c-0.96-88.288-0.96-176.544-0.96-264.32z m169.824-29.248c14.4 9.088 30.72 16.32 47.488 19.648 10.08 2.4 19.68 3.36 29.76 3.36v27.84c-29.76-6.72-94.048-25.44-77.248-50.88z" fill="#25F4EE" p-id="10305"></path><path d="M326.08 447.008a188.032 188.032 0 0 1 125.216-26.4v31.68c-40.288 0.96-73.856 18.24-106.496 42.208-24.448 18.24-41.28 36.928-54.208 64.768-12.48 26.368-17.76 48.448-17.28 77.728 0 32.128 8.64 55.168 24 83.456 7.2 12.96 21.12 32.64 17.76 47.04a185.92 185.92 0 0 1-53.76-59.04 193.6 193.6 0 0 1-26.368-103.136 195.52 195.52 0 0 1 28.288-94.496 186.08 186.08 0 0 1 62.848-63.808z" fill="#25F4EE" p-id="10306"></path><path d="M541.984 221.984h77.248c12 20.64 11.04 28.32 17.76 41.28 10.56 20.608 18.688 28.288 41.728 51.328a11.2 11.2 0 0 1 3.36 3.36c20.16 23.04 47.488 39.328 77.248 46.048 17.28 12.48 5.28 62.848 5.28 89.696-50.4 0.48-101.728-19.2-142.496-48.928 0 64.32 0 123.776 0.48 188.544 0 8.64 0.48 16.8 0 25.92-2.4 31.168-16.8 76.768-32.64 103.616a197.888 197.888 0 0 1-53.728 60.928 172 172 0 0 1-97.856 33.6 219.936 219.936 0 0 1-53.28-4.32c-24.448-5.28-47.968-29.76-68.576-44.16l-1.44-1.408c-10.08-10.56-19.2-22.56-25.92-36-15.36-27.84-24-59.488-24-91.616a192 192 0 0 1 18.24-84.928c12.96-27.84 32.16-52.8 56.128-71.04a194.24 194.24 0 0 1 111.296-38.816c11.04 5.248 3.36 86.336 3.36 86.336-12.928-4.32-30.208-2.88-43.648 0.48-16.32 3.36-24.96 12.96-37.44 23.52-7.68 6.72-14.4 13.92-18.688 23.04-8.16 15.36-7.68 17.28-6.24 34.528 1.92 16.32 4.8 34.048 15.84 46.528 7.2 9.12 12 23.04 21.568 29.28 7.68 12.48 17.76 21.568 28.8 26.88 15.36 8.128 32.64 11.52 49.408 10.048 26.88-1.92 51.84-18.24 65.28-41.728 8.64-15.36 12.448-35.04 12.448-51.84 0-141.504 0.48-410.176 0.48-410.176z" fill="#FFFFFF" p-id="10307"></path><path d="M618.24 221.984c9.152 0.48 17.792 0 27.36 0 0 29.76 9.6 59.968 26.88 84.448 2.4 3.36 4.32 6.24 6.72 8.64-19.68-12-35.04-30.72-45.568-51.36-6.72-12.48-12-26.88-15.36-41.728z m141.088 142.016c10.048 2.4 19.648 3.36 29.76 3.36v104.096c-50.88 0.48-101.76-16.32-143.488-46.528v206.784c0.48 15.808-0.96 31.168-4.32 46.528a192 192 0 0 1-75.776 115.616 181.216 181.216 0 0 1-68.16 30.24c-29.728 6.72-60.416 6.24-89.216-1.44a189.888 189.888 0 0 1-91.136-54.72c20.608 14.88 44.128 24.48 69.056 29.76 17.28 3.84 35.52 4.8 53.28 4.32a172 172 0 0 0 97.856-33.6 198.624 198.624 0 0 0 53.76-60.928 211.136 211.136 0 0 0 27.808-89.216 233.28 233.28 0 0 0 0-25.92c-0.96-63.808-0.96-128.096-0.96-192.384a240.32 240.32 0 0 0 142.016 45.12c-0.48-26.88 0-54.24-0.48-81.088z" fill="#FE2C55" p-id="10308"></path><path d="M451.296 444.608c10.08 0 20.64 0.48 30.24 1.92v106.976a84.672 84.672 0 0 0-45.12-1.92c-28.288 6.24-51.808 27.84-61.856 55.168-10.08 26.88-6.24 58.56 10.56 81.568-10.08-5.76-18.24-13.44-25.44-22.56-10.56-12.48-17.76-28.8-19.68-45.12-1.92-16.768 0.96-35.008 9.12-49.856 4.32-9.12 11.04-16.8 18.72-23.52 12.48-10.56 28.288-17.28 43.648-21.6 12.96-2.88 26.88-3.36 39.36 0.96 0.448-4.32 0.448-71.488 0.448-82.016z" fill="#FE2C55" p-id="10309"></path></svg>