<svg t="1740900048847" class="icon" viewBox="0 0 1024 1024" version="1.1" xmlns="http://www.w3.org/2000/svg" p-id="15146" width="200" height="200"><path d="M512 0C229.274 0 0 229.274 0 512s229.274 512 512 512 512-229.274 512-512S794.726 0 512 0z" fill="#25D366" p-id="15147"></path><path d="M376.294 772.813L213.811 815.41l43.495-158.72a305.664 305.664 0 0 1-40.91-153.216c0.078-168.909 137.575-306.355 306.458-306.355a304.46 304.46 0 0 1 216.756 89.856 304.46 304.46 0 0 1 89.702 216.73c-0.077 168.908-137.574 306.33-306.458 306.33-51.302 0-101.632-12.8-146.56-37.249z" fill="#FFFFFF" p-id="15148"></path><path d="M664.038 609.306c-6.4 17.894-36.966 34.201-51.686 36.428a105.088 105.088 0 0 1-48.23-3.072 439.1 439.1 0 0 1-43.648-16.128c-76.8-33.126-126.976-110.438-130.816-115.558-3.815-5.12-31.258-41.498-31.258-79.18 0-37.658 19.789-56.193 26.803-63.847a28.16 28.16 0 0 1 20.403-9.549c5.12 0 10.24 0 14.67 0.256 4.71 0.23 11.033-1.818 17.254 13.133 6.374 15.309 21.708 52.992 23.603 56.832 1.92 3.814 3.174 8.294 0.614 13.414-2.509 5.12-11.008 16.103-19.097 26.163-3.43 4.199-7.86 7.962-3.38 15.616 4.43 7.68 19.815 32.768 42.599 53.044 29.235 26.06 53.913 34.124 61.568 37.99 7.654 3.814 12.109 3.174 16.589-1.92 4.428-5.12 19.123-22.349 24.243-30.029 5.12-7.654 10.24-6.4 17.229-3.84 7.04 2.56 44.646 21.095 52.326 24.935 7.654 3.814 12.774 5.734 14.669 8.934 1.92 3.174 1.92 18.509-4.455 36.378z" fill="#25D366" p-id="15149"></path></svg>