<svg t="1740899941631" class="icon" viewBox="0 0 1024 1024" version="1.1" xmlns="http://www.w3.org/2000/svg" p-id="9721" width="200" height="200"><path d="M0 512C0 229.2224 229.2224 0 512 0c282.7776 0 512 229.2224 512 512 0 282.7776-229.2224 512-512 512C229.2224 1024 0 794.7776 0 512z" fill="#FF0000" p-id="9722"></path><path d="M773.649067 385.570133c-6.280533-24.132267-24.7808-43.144533-48.2816-49.578666C682.786133 324.266667 512 324.266667 512 324.266667s-170.786133 0-213.367467 11.7248c-23.5008 6.434133-42.001067 25.429333-48.298666 49.578666C238.933333 429.294933 238.933333 520.533333 238.933333 520.533333s0 91.2384 11.4176 134.9632c6.280533 24.132267 24.7808 43.144533 48.2816 49.595734C341.213867 716.8 512 716.8 512 716.8s170.786133 0 213.367467-11.707733c23.5008-6.4512 42.001067-25.463467 48.298666-49.595734C785.066667 611.771733 785.066667 520.533333 785.066667 520.533333s0-91.2384-11.4176-134.9632" fill="#FFFFFF" p-id="9723"></path><path d="M460.8 614.4V443.733333l136.533333 85.333334z" fill="#FF0000" p-id="9724"></path></svg>